<?xml version='1.0' encoding='ascii'?>
<svg xmlns="http://www.w3.org/2000/svg" xmlns:inkscape="http://www.inkscape.org/namespaces/inkscape" version="1.1" width="256" height="256">
    <g id="ViewLayer_LineSet" inkscape:groupmode="lineset" inkscape:label="ViewLayer_LineSet">
        <g inkscape:groupmode="layer" id="strokes" inkscape:label="strokes">
            <path fill="rgb(100, 182, 135)" stroke-width="0" stroke-linecap="butt" stroke-opacity="1.0" stroke="rgb(0, 0, 0)" stroke-linejoin="round" d=" M 113.172, 187.681 109.041, 178.574 104.910, 169.467 100.779, 160.361 96.648, 151.254 92.516, 142.147 88.385, 133.040 84.254, 123.934 80.123, 114.827 75.992, 105.720 71.861, 96.613 67.729, 87.506 63.598, 78.400 59.467, 69.293 55.336, 60.186 51.205, 51.079 47.073, 41.973 42.942, 32.866 38.811, 23.759 37.771, 21.466 27.852, 20.199 17.932, 18.932 11.922, 18.164 16.187, 27.209 20.451, 36.254 24.715, 45.300 28.980, 54.345 33.244, 63.390 37.509, 72.435 41.773, 81.480 46.037, 90.525 50.302, 99.571 54.566, 108.616 58.830, 117.661 63.095, 126.706 67.359, 135.751 71.624, 144.796 75.888, 153.842 80.152, 162.887 84.417, 171.932 88.681, 180.977 92.945, 190.022 97.210, 199.067 101.474, 208.113 105.739, 217.158 110.003, 226.203 114.267, 235.248 118.532, 244.293 122.288, 252.261 126.862, 243.368 131.436, 234.476 136.009, 225.583 140.583, 216.690 145.157, 207.797 149.730, 198.905 154.304, 190.012 158.878, 181.119 163.452, 172.226 168.025, 163.334 172.599, 154.441 177.173, 145.548 181.746, 136.655 186.320, 127.763 190.894, 118.870 195.468, 109.977 200.041, 101.084 204.615, 92.191 209.189, 83.299 213.762, 74.406 218.336, 65.513 222.910, 56.620 227.483, 47.728 232.057, 38.835 236.631, 29.942 242.382, 18.761 232.441, 19.846 222.500, 20.932 213.676, 21.896 213.605, 22.039 " />
            <path fill="rgb(57, 72, 92)" stroke-width="0" stroke-linecap="butt" stroke-opacity="1.0" stroke="rgb(0, 0, 0)" stroke-linejoin="round" d=" M 70.457, 25.738 60.538, 24.468 50.619, 23.198 40.700, 21.927 38.279, 21.617 42.390, 30.733 46.501, 39.849 50.613, 48.965 54.724, 58.081 58.835, 67.197 62.946, 76.312 67.057, 85.428 71.168, 94.544 75.280, 103.660 79.391, 112.776 83.502, 121.892 87.613, 131.007 91.724, 140.123 95.835, 149.239 99.947, 158.355 104.058, 167.471 108.169, 176.587 112.280, 185.702 113.172, 187.681 117.283, 196.797 121.395, 205.913 121.955, 207.154 122.170, 207.632 126.590, 198.662 131.010, 189.692 135.430, 180.721 139.850, 171.751 144.270, 162.781 148.690, 153.811 153.110, 144.841 157.530, 135.871 161.950, 126.900 166.370, 117.930 170.790, 108.960 175.210, 99.990 179.630, 91.020 184.050, 82.050 188.470, 73.079 192.890, 64.109 197.310, 55.139 201.730, 46.169 206.150, 37.199 210.570, 28.229 213.620, 22.037 213.605, 22.039 203.665, 23.128 193.724, 24.218 183.784, 25.308 178.479, 25.890 174.503, 35.065 170.527, 44.241 166.551, 53.416 162.575, 62.592 158.599, 71.768 154.623, 80.943 150.647, 90.119 146.671, 99.294 142.695, 108.470 138.719, 117.645 134.743, 126.821 130.767, 135.997 126.791, 145.172 122.815, 154.348 121.806, 156.675 118.155, 147.365 114.504, 138.055 110.853, 128.746 107.202, 119.436 103.551, 110.126 99.900, 100.817 96.249, 91.507 92.598, 82.197 88.947, 72.888 85.296, 63.578 81.645, 54.268 77.994, 44.958 74.343, 35.649 70.457, 25.738 " />
            <path fill="rgb(77, 158, 248)" stroke-width="1.0" stroke-linecap="butt" stroke-opacity="1.0" stroke="rgb(0, 0, 0)" stroke-linejoin="round" d=" M 120.395, 6.613 112.927, 13.264 105.459, 19.915 97.991, 26.565 91.446, 32.394 91.073, 42.387 90.700, 52.380 90.327, 62.373 89.945, 72.588 99.237, 76.285 108.529, 79.982 117.820, 83.678 127.112, 87.375 128.098, 87.768 136.621, 82.537 145.145, 77.307 153.668, 72.077 159.923, 68.238 159.396, 58.252 158.869, 48.266 158.343, 38.280 157.816, 28.294 157.780, 27.610 149.061, 22.714 140.342, 17.817 131.623, 12.920 122.904, 8.023 120.395, 6.613 " />
            <path fill="rgb(77, 158, 248)" stroke-width="1.0" stroke-linecap="butt" stroke-opacity="1.0" stroke="rgb(0, 0, 0)" stroke-linejoin="round" d=" M 120.395, 6.613 120.414, 16.613 120.433, 26.613 120.452, 36.613 120.471, 46.613 120.476, 49.640 " />
            <path fill="rgb(77, 158, 248)" stroke-width="1.0" stroke-linecap="butt" stroke-opacity="1.0" stroke="rgb(0, 0, 0)" stroke-linejoin="round" d=" M 89.945, 72.588 97.939, 66.580 105.933, 60.572 113.927, 54.563 120.476, 49.640 129.521, 53.905 138.567, 58.169 147.612, 62.434 156.657, 66.699 159.923, 68.238 " />
        </g>
    </g>
</svg>
